<svg xmlns="http://www.w3.org/2000/svg" xmlns:xlink="http://www.w3.org/1999/xlink" width="35" height="26"><defs><path id="a" d="M555.95 1505.5s0-3.61-2.65-4.92c-1.67-.83-1.03-.2-3.09-1.05a29.16 29.16 0 0 1-2.54-1.13l-.02-1.94s.77-.59 1.01-2.43c.48.14.64-.56.67-1 .03-.44.28-1.79-.3-1.67a12 12 0 0 0 .17-2.15c-.15-1.5-1.2-3.09-3.85-3.2-2.25.11-3.71 1.7-3.86 3.2-.04.44.05 1.25.17 2.15-.6-.12-.34 1.23-.31 1.66.03.45.18 1.15.67 1.02.24 1.84 1 2.43 1 2.43l-.01 1.95c.7.16.8.03 2.2.73 3.3 1.64 3.3 6.14 3.3 6.14 0 .6-.41 1.08-.97 1.2h7.41a1 1 0 0 0 1-.98zm-17.72-7.9l-.02-2.14s.84-.64 1.1-2.67c.54.16.71-.61.74-1.1.03-.48.32-1.96-.33-1.83.13-1 .24-1.89.19-2.36-.16-1.66-1.32-3.4-4.23-3.52-2.47.12-4.08 1.86-4.24 3.52-.05.48.05 1.37.18 2.36-.65-.13-.37 1.35-.34 1.83.03.49.2 1.26.74 1.11.26 2.02 1.1 2.67 1.1 2.67l-.02 2.15s-.53.33-2.8 1.26c-2.26.94-1.55.2-3.39 1.1-2.91 1.45-2.91 5.43-2.91 5.43 0 .6.49 1.09 1.1 1.09h21.14c.6 0 1.09-.49 1.09-1.1 0 0 0-3.97-2.91-5.41-1.84-.91-1.13-.21-3.4-1.15a32.7 32.7 0 0 1-2.8-1.24z"/></defs><use fill="#fff" xlink:href="#a" transform="translate(-522 -1482)"/></svg>