<svg xmlns="http://www.w3.org/2000/svg" xmlns:xlink="http://www.w3.org/1999/xlink" width="22" height="14"><defs><path id="a" d="M379.71 9115.78v.07c-.03.16-.1.3-.21.41-.2.25-.43.48-.65.71a16.8 16.8 0 0 1-4.13 3.12c-.97.51-2 .92-3.08 1.12-1.19.22-2.38.2-3.55-.05a13.4 13.4 0 0 1-5.5-2.86 14.96 14.96 0 0 1-2.12-2.04.78.78 0 0 1 0-1.05c.2-.24.43-.47.65-.7a16.8 16.8 0 0 1 4.13-3.12c.97-.51 2-.92 3.09-1.12a8.98 8.98 0 0 1 3.55.05 13.4 13.4 0 0 1 5.5 2.86c.75.61 1.49 1.28 2.1 2.03.12.12.19.26.21.41v.08l.01.04v.04zm-9.72-3.84a3.65 3.65 0 1 0 0 7.3 3.65 3.65 0 0 0 0-7.3zm0 5.47a1.82 1.82 0 1 1 0-3.65 1.82 1.82 0 0 1 0 3.65z"/></defs><use fill="#95e1d3" xlink:href="#a" transform="translate(-359 -9109)"/></svg>